<svg xmlns="http://www.w3.org/2000/svg" version="1.1" viewBox="10 10 80 80">
 <path d="m56.75 87.094c-7.0586 0-13.969-1.9961-19.941-5.7578-5.9688-3.7617-10.75-9.1406-13.793-15.508-5.4453-11.586-4.543-25.164 2.3945-35.922 6.9375-10.762 18.93-17.191 31.73-17.016 1.25 0.019531 2.3789 0.75391 2.9062 1.8906 0.5 1.082 0.34375 2.3555-0.40625 3.2812-7.5312 9.2109-9.8242 21.637-6.0742 32.93 3.7461 11.289 13.016 19.879 24.559 22.758 1.1641 0.29297 2.0586 1.2305 2.2969 2.4062 0.28906 1.2188-0.17969 2.4922-1.1875 3.2344-3.8438 2.957-8.2266 5.1406-12.906 6.4219-3.1211 0.85547-6.3438 1.2852-9.5781 1.2812zm-0.1875-71.875c-11.906 0.011719-22.984 6.1133-29.352 16.176-6.3711 10.059-7.1523 22.68-2.0703 33.449 3.5117 7.3789 9.5 13.297 16.922 16.723 7.4219 3.4258 15.809 4.1445 23.703 2.0273 4.3906-1.1875 8.5-3.2305 12.094-6.0156 0.30469-0.24219 0.41406-0.65625 0.26562-1.0156-0.054688-0.29297-0.27344-0.52344-0.5625-0.59375-12.297-3.0859-22.164-12.238-26.164-24.27-4-12.027-1.582-25.27 6.4141-35.105 0.19531-0.23047 0.23828-0.55469 0.10938-0.82812-0.14844-0.31641-0.46094-0.52344-0.8125-0.53125z"/>
</svg>