<svg xmlns="http://www.w3.org/2000/svg" version="1.1" viewBox="10 10 80 80">
 <g>
  <path d="m84.293 49.715-3.1484-2.3984c-3.4922-2.6602-4.9922-7.2734-3.7305-11.48l1.1367-3.7891c0.10938-0.36719 0.042969-0.76562-0.18359-1.0781-0.22656-0.30859-0.58203-0.49609-0.96484-0.50781l-3.957-0.089844c-4.3906-0.10156-8.3125-2.9492-9.7617-7.0938l-1.3086-3.7344c-0.125-0.36328-0.41797-0.64453-0.78125-0.76172s-0.76172-0.058594-1.0781 0.16016l-3.2539 2.2539c-3.6094 2.5-8.4609 2.5-12.07 0l-3.2539-2.2539c-0.3125-0.21484-0.71484-0.27734-1.0781-0.16016-0.36328 0.12109-0.65234 0.39844-0.78125 0.76172l-1.3086 3.7344c-1.4492 4.1445-5.375 6.9961-9.7617 7.0938l-3.957 0.089844c-0.38281 0.011718-0.73828 0.19531-0.96484 0.50781-0.22656 0.30859-0.29297 0.70703-0.18359 1.0781l1.1367 3.7891c1.2617 4.207-0.23828 8.8164-3.7305 11.48l-3.1484 2.3984c-0.30469 0.23438-0.48438 0.59375-0.48438 0.97656 0 0.38281 0.17969 0.74609 0.48438 0.97656l3.1484 2.3984c3.4922 2.6602 4.9922 7.2734 3.7305 11.48l-1.1367 3.7891c-0.10938 0.36719-0.042969 0.76562 0.18359 1.0781 0.22656 0.30859 0.58203 0.49609 0.96484 0.50781l3.957 0.089844c4.3906 0.10156 8.3125 2.9492 9.7617 7.0938l1.3086 3.7344c0.125 0.36328 0.41797 0.64453 0.78125 0.76172 0.36719 0.11719 0.76172 0.058594 1.0781-0.16016l3.2539-2.2539c3.6094-2.5 8.4609-2.5 12.07 0l3.2539 2.2539c0.20703 0.14453 0.45312 0.21875 0.69922 0.21875 0.125 0 0.25781-0.019531 0.37891-0.058594 0.36328-0.12109 0.65234-0.39844 0.78125-0.76172l1.3086-3.7344c1.4492-4.1445 5.375-6.9961 9.7617-7.0938l3.957-0.089844c0.38281-0.011719 0.73828-0.19531 0.96484-0.50781 0.22656-0.30859 0.29297-0.71094 0.18359-1.0781l-1.1367-3.7891c-1.2617-4.2031 0.23828-8.8164 3.7305-11.48l3.1484-2.3984c0.30469-0.23438 0.48438-0.59375 0.48438-0.97656 0-0.38281-0.17969-0.74609-0.48438-0.97656zm-4.6406 2.3984c-4.3047 3.2773-6.1484 8.9609-4.5938 14.141l0.67188 2.2422-2.3438 0.054687c-5.4102 0.125-10.242 3.6328-12.031 8.7383l-0.77344 2.2109-1.9258-1.332c-4.4453-3.0781-10.422-3.0781-14.871 0l-1.9258 1.332-0.77344-2.2109c-1.7852-5.1055-6.6211-8.6172-12.031-8.7383l-2.3398-0.054687 0.67188-2.2422c1.5586-5.1797-0.28906-10.863-4.5938-14.141l-1.8633-1.4219 1.8633-1.4219c4.3047-3.2773 6.1484-8.9609 4.5977-14.141l-0.67188-2.2422 2.3398-0.054688c5.4102-0.125 10.242-3.6328 12.031-8.7383l0.77344-2.2109 1.9258 1.332c4.4453 3.0781 10.422 3.0781 14.871 0l1.9258-1.332 0.77344 2.2109c1.7852 5.1055 6.6211 8.6172 12.031 8.7383l2.3438 0.054688-0.67188 2.2422c-1.5547 5.1797 0.29297 10.863 4.5977 14.141l1.8633 1.4219-1.8633 1.4219z"/>
  <path d="m51.23 29.777c-11.535 0-20.918 9.3828-20.918 20.918 0 11.535 9.3828 20.918 20.918 20.918 11.535 0 20.918-9.3828 20.918-20.918 0-11.535-9.3828-20.918-20.918-20.918zm0 39.375c-10.176 0-18.461-8.2812-18.461-18.461 0-10.18 8.2812-18.461 18.461-18.461 10.18 0 18.461 8.2812 18.461 18.461 0 10.18-8.2812 18.461-18.461 18.461z"/>
 </g>
</svg>